<svg width="32" height="32" viewBox="0 0 32 32" fill="none" xmlns="http://www.w3.org/2000/svg">
<path d="M25.9057 13.404H6.30989C5.38149 13.404 4.9836 12.3927 5.71306 11.9119L15.511 5.49603C15.6919 5.38961 15.8979 5.3335 16.1078 5.3335C16.3177 5.3335 16.5237 5.38961 16.7046 5.49603L26.5026 11.9119C27.232 12.3927 26.8341 13.404 25.9057 13.404Z" stroke="#CCBC67" stroke-linecap="round" stroke-linejoin="round"/>
<path d="M26.0552 22.5221H6.16096C5.70315 22.5221 5.33203 22.8932 5.33203 23.351V25.8378C5.33203 26.2956 5.70315 26.6667 6.16096 26.6667H26.0552C26.513 26.6667 26.8841 26.2956 26.8841 25.8378V23.351C26.8841 22.8932 26.513 22.5221 26.0552 22.5221Z" stroke="#CCBC67" stroke-linecap="round" stroke-linejoin="round"/>
<path d="M7.82031 13.4038V22.522" stroke="#CCBC67" stroke-linecap="round" stroke-linejoin="round"/>
<path d="M11.9648 13.4038V22.522" stroke="#CCBC67" stroke-linecap="round" stroke-linejoin="round"/>
<path d="M16.1094 13.4038V22.522" stroke="#CCBC67" stroke-linecap="round" stroke-linejoin="round"/>
<path d="M20.2539 13.4038V22.522" stroke="#CCBC67" stroke-linecap="round" stroke-linejoin="round"/>
<path d="M24.3982 13.4041V22.5223" stroke="#CCBC67" stroke-linecap="round" stroke-linejoin="round"/>
</svg>
