<svg width="32" height="32" viewBox="0 0 32 32" fill="none" xmlns="http://www.w3.org/2000/svg">
<path d="M19.3759 16.853C23.5789 16.853 26.9861 15.3387 26.9861 13.4707C26.9861 11.6027 23.5789 10.0884 19.3759 10.0884C15.1728 10.0884 11.7656 11.6027 11.7656 13.4707C11.7656 15.3387 15.1728 16.853 19.3759 16.853Z" stroke="#CCBC67" stroke-linecap="round" stroke-linejoin="round"/>
<path d="M11.7656 13.4707V23.6177C11.7656 25.478 15.148 27 19.3759 27C23.6038 27 26.9861 25.478 26.9861 23.6177V13.4707" stroke="#CCBC67" stroke-linecap="round" stroke-linejoin="round"/>
<path d="M26.9861 18.5442C26.9861 20.4045 23.6038 21.9265 19.3759 21.9265C15.148 21.9265 11.7656 20.4045 11.7656 18.5442" stroke="#CCBC67" stroke-linecap="round" stroke-linejoin="round"/>
<path d="M19.2058 6.70601C17.2297 5.48647 14.9294 4.89666 12.6102 5.01484C8.39924 5.01484 5 6.53689 5 8.39717C5 9.39496 5.98088 10.2913 7.53675 10.9339" stroke="#CCBC67" stroke-linecap="round" stroke-linejoin="round"/>
<path d="M7.53675 21.081C5.98088 20.4383 5 19.542 5 18.5442V8.39722" stroke="#CCBC67" stroke-linecap="round" stroke-linejoin="round"/>
<path d="M7.53675 16.0075C5.98088 15.3648 5 14.4685 5 13.4707" stroke="#CCBC67" stroke-linecap="round" stroke-linejoin="round"/>
</svg>
