<svg width="32" height="32" viewBox="0 0 32 32" fill="none" xmlns="http://www.w3.org/2000/svg">
<path d="M6.13672 15.2376L24.994 6.66162" stroke="#CCBC67" stroke-linecap="round" stroke-linejoin="round"/>
<path d="M21.4688 5.3335L24.9942 6.66171L23.6824 10.1872" stroke="#CCBC67" stroke-linecap="round" stroke-linejoin="round"/>
<path d="M25.832 26.667H21.7326V15.1886C21.7326 14.9712 21.819 14.7627 21.9728 14.6089C22.1265 14.4551 22.3351 14.3688 22.5525 14.3688H25.0121C25.2296 14.3688 25.4381 14.4551 25.5919 14.6089C25.7457 14.7627 25.832 14.9712 25.832 15.1886V26.667Z" stroke="#CCBC67" stroke-linecap="round" stroke-linejoin="round"/>
<path d="M17.6328 26.667H13.5334V17.6483C13.5334 17.4308 13.6198 17.2223 13.7735 17.0685C13.9273 16.9148 14.1358 16.8284 14.3533 16.8284H16.8129C17.0304 16.8284 17.2389 16.9148 17.3927 17.0685C17.5464 17.2223 17.6328 17.4308 17.6328 17.6483V26.667Z" stroke="#CCBC67" stroke-linecap="round" stroke-linejoin="round"/>
<path d="M9.42969 26.667H5.33028L5.33028 20.1079C5.33028 19.8905 5.41666 19.6819 5.57042 19.5282C5.72417 19.3744 5.93271 19.2881 6.15016 19.2881H8.60981C8.82725 19.2881 9.03579 19.3744 9.18955 19.5282C9.34331 19.6819 9.42969 19.8905 9.42969 20.1079V26.667Z" stroke="#CCBC67" stroke-linecap="round" stroke-linejoin="round"/>
</svg>
