<svg width="32" height="32" viewBox="0 0 32 32" fill="none" xmlns="http://www.w3.org/2000/svg">
<path d="M12.25 13.25C14.5282 13.25 16.375 11.4032 16.375 9.125C16.375 6.84683 14.5282 5 12.25 5C9.97183 5 8.125 6.84683 8.125 9.125C8.125 11.4032 9.97183 13.25 12.25 13.25Z" stroke="#CCBC67" stroke-linecap="round" stroke-linejoin="round"/>
<path d="M20.5 27H4V25.1666C4 22.9786 4.86919 20.8802 6.41637 19.333C7.96354 17.7858 10.062 16.9166 12.25 16.9166C14.438 16.9166 16.5365 17.7858 18.0836 19.333C19.6308 20.8802 20.5 22.9786 20.5 25.1666V27Z" stroke="#CCBC67" stroke-linecap="round" stroke-linejoin="round"/>
<path d="M19.582 5C20.676 5 21.7253 5.4346 22.4988 6.20818C23.2724 6.98177 23.707 8.03098 23.707 9.125C23.707 10.219 23.2724 11.2682 22.4988 12.0418C21.7253 12.8154 20.676 13.25 19.582 13.25" stroke="#CCBC67" stroke-linecap="round" stroke-linejoin="round"/>
<path d="M22.5195 17.2646C24.0812 17.8587 25.4257 18.913 26.3751 20.288C27.3245 21.6629 27.834 23.2938 27.8362 24.9646V26.9996H25.0862" stroke="#CCBC67" stroke-linecap="round" stroke-linejoin="round"/>
</svg>
